<?xml version="1.0" encoding="utf-8"?>
<!-- Generator: Adobe Illustrator 23.0.6, SVG Export Plug-In . SVG Version: 6.00 Build 0)  -->
<svg version="1.1" id="Capa_1" xmlns="http://www.w3.org/2000/svg" xmlns:xlink="http://www.w3.org/1999/xlink" x="0px" y="0px"
	 viewBox="0 0 512 512" style="enable-background:new 0 0 512 512;" xml:space="preserve">
<style type="text/css">
	.st0{fill:none;}
	.st1{fill:#FFFFFF;}
</style>
<rect y="0" class="st0" width="512" height="512"/>
<g>
	<path class="st1" d="M212.98,207.72c17.84,0,32.35-14.51,32.35-32.35s-14.51-32.35-32.35-32.35h-98.67l-23.95,64.7L212.98,207.72
		L212.98,207.72z"/>
	<path class="st1" d="M419.85,281.73c13.19-24.18,20.15-51.45,20.15-79.18v-15.52c0-44.21-17.22-85.77-48.48-117.03
		S318.7,21.52,274.49,21.52c-33.98,0-66.67,10.26-94.56,29.67c-25.48,17.74-45.19,41.9-57.4,70.25h90.44
		c29.73,0,53.92,24.19,53.92,53.92s-24.19,53.92-53.92,53.92H82.37L72,257.31l2.94,24.42H419.85z"/>
	<path class="st1" d="M77.53,303.3l5.19,43.17H356.3l2.55-1.51c18.16-10.78,34.12-24.98,46.94-41.66L77.53,303.3L77.53,303.3z"/>
</g>
</svg>
