<?xml version="1.0" encoding="utf-8"?>
<!-- Generator: Adobe Illustrator 23.0.6, SVG Export Plug-In . SVG Version: 6.00 Build 0)  -->
<svg version="1.1" id="Camada_1" xmlns="http://www.w3.org/2000/svg" xmlns:xlink="http://www.w3.org/1999/xlink" x="0px" y="0px"
	 viewBox="0 0 30 30" style="enable-background:new 0 0 30 30;" xml:space="preserve">
<style type="text/css">
	.st0{fill:#FFFFFF;}
</style>
<g>
	<path class="st0" d="M16.06,20.59c-1.58-0.1-8.37-4.9-6.78-8.4c1.64-3.62,6.71-1.82,6.71-1.82s-0.72-0.81-1.85-1.6
		c-1.16-0.81-2.75-1.6-4.43-1.46C9.59,7.33,9.47,7.35,9.35,7.37c-3.46,0.56-5.55,3.5-3.61,7.56c1.95,4.06,9.16,7.7,10.02,7.77
		c0.87,0.07,5.63-4.41,5.63-4.41S17.14,20.66,16.06,20.59z"/>
	<path class="st0" d="M23,8.6c-1.07-0.48-2.38-0.48-3.48,0.03c-0.1,0.05-0.21,0.1-0.31,0.15c-0.9,0.47-2,1.28-3,2.92
		c0,0,3.56-2.04,4.62,0.56c1.23,3.01-4.47,7.84-4.47,7.84s6.33-1.98,8.15-6.23C25.67,11.13,24.62,9.32,23,8.6z"/>
</g>
</svg>
