<?xml version="1.0" encoding="utf-8"?>
<!-- Generator: Adobe Illustrator 16.0.4, SVG Export Plug-In . SVG Version: 6.00 Build 0)  -->
<!DOCTYPE svg PUBLIC "-//W3C//DTD SVG 1.1//EN" "http://www.w3.org/Graphics/SVG/1.1/DTD/svg11.dtd">
<svg version="1.1" id="Layer_1" xmlns="http://www.w3.org/2000/svg" xmlns:xlink="http://www.w3.org/1999/xlink" x="0px" y="0px"
	 width="352.583px" height="89.999px" viewBox="0 0 352.583 89.999" enable-background="new 0 0 352.583 89.999"
	 xml:space="preserve">
<g>
	<path fill="#FFFFFF" d="M347.5,22.548C360.475,5.122,345.764,0,335.073,0H73.118c-8.873,0-20.608,5.867-26.072,13.042L3.412,70.305
		c-8.755,11.018,0.646,19.694,13.452,19.694h263.433c8.875,0,20.608-5.865,26.072-13.04L347.5,22.548z"/>
	<g>
		<path fill-rule="evenodd" clip-rule="evenodd" fill="#065EA3" d="M74.573,46.978l15.291-19.985h85.16l6.138-8.114H89.448
			c-4.94,0-9.134,3.161-12.109,6.99L62.828,44.784c-3.89,4.67-3.997,6.514-3.557,8.145c0.445,1.641,2.22,3.424,7.006,3.424H81.32
			c1.41-1.783,4.949-6.262,5.307-6.721H75.395C73.988,49.632,73.473,48.306,74.573,46.978z M257.292,34.741l2.804-3.506h-10.943
			L229.955,56.46h11.884l10.218-13.436c1.662-2.148,3.512-3.697,5.685-4.532c2.555-0.985,6.855-1.122,9.698-0.646l1.93,0.326
			l5.861-7.699C275.23,30.474,263.425,30.304,257.292,34.741z M128.271,31.271h-17.624c-2.468,0-5.589,1.576-7.423,4L90.858,51.407
			c0,0-1.438,1.67-0.882,3.172c0.409,0.976,1.021,1.766,3.485,1.766h19.669c2.015,0,4.837-1.375,6.231-3.371l12.222-15.852
			C133.67,34.399,131.042,31.271,128.271,31.271z M118.834,38.904l-8.046,10.521c-0.903,1.204-1.616,1.798-3.055,1.812h-3.476
			c-1.182,0-2.094-0.99-0.944-2.487l8.079-10.485c0.914-1.238,1.841-2.066,3.96-2.066h2.248
			C119.326,36.198,119.888,37.558,118.834,38.904z M235.745,31.271h-17.621c-2.473,0-5.59,1.576-7.422,4l-12.368,16.137
			c0,0-1.442,1.67-0.884,3.172c0.409,0.976,1.022,1.766,3.483,1.766h19.669c2.021,0,4.835-1.375,6.233-3.371l12.219-15.852
			C241.144,34.399,238.516,31.271,235.745,31.271z M226.308,38.904l-8.043,10.521c-0.905,1.204-1.619,1.798-3.057,1.812h-3.475
			c-1.183,0-2.098-0.99-0.946-2.487l8.081-10.485c0.914-1.238,1.843-2.066,3.958-2.066h2.245
			C226.799,36.198,227.366,37.558,226.308,38.904z M161.808,31.336c-1.965,0-3.879,0.104-5.779,0.634
			c-1.875,0.527-3.475,1.314-5.161,2.346l2.479-3.091h-11.355l-19.267,25.112h11.573l12.685-16.541
			c1.525-2.01,3.55-3.479,6.115-2.879c0.962,0.227,1.396,1.206,1.489,1.811c0.088,0.612,0.039,1.316-1.305,2.988l-11.19,14.621
			h11.15l14.037-18.533C168.911,35.706,169.108,31.336,161.808,31.336z M204.542,20.849l-10.529,13.721
			c-0.485-0.906-1.646-2.254-2.816-2.686c-1.141-0.455-2.72-0.659-4.685-0.659c-1.731,0-3.456,0.034-5.073,0.251
			c-1.882,0.285-4.844,1.307-6.002,2.816c-1.927,2.504-10.361,13.449-11.046,14.496c-1.317,2.037-0.598,4.326-0.109,5.121
			c1.087,1.771,3.099,2.545,4.264,2.545c0.251,0,4.481,0.031,4.89,0c1.359,0,4.138-0.928,5.673-2.416l-1.729,2.411h11.483
			l27.232-35.601H204.542z M188.881,41.296l-6.152,7.98c-0.251,0.436-0.868,1.09-1.635,1.555c-0.524,0.318-1.094,0.307-1.7,0.389
			h-3.209c-1.62,0-2.068-1.613-0.993-3.24l6.121-8.003c1.757-2.331,4.209-3.163,5.814-3.163c1.771,0,2.544,0.91,2.715,1.646
			C190.061,39.396,189.602,40.401,188.881,41.296z"/>
		<polygon fill-rule="evenodd" clip-rule="evenodd" fill="#DE2624" points="271.068,71.272 59.092,71.272 63.254,65.748 
			275.23,65.748 		"/>
	</g>
</g>
</svg>
