<?xml version="1.0" encoding="utf-8"?>
<!-- Generator: Adobe Illustrator 23.0.6, SVG Export Plug-In . SVG Version: 6.00 Build 0)  -->
<svg version="1.1" id="Camada_1" xmlns="http://www.w3.org/2000/svg" xmlns:xlink="http://www.w3.org/1999/xlink" x="0px" y="0px"
	 viewBox="0 0 30 30" style="enable-background:new 0 0 30 30;" xml:space="preserve">
<style type="text/css">
	.st0{fill:#45AC4C;}
	.st1{fill:#FFFFFF;}
</style>
<g>
	<g>
		<path class="st0" d="M15.17,27.23c-2.6,0-5-0.8-6.99-2.17l-4.24,1.22l1.08-4.37c-1.38-1.99-2.19-4.41-2.19-7.02
			c0-6.81,5.52-12.34,12.34-12.34c6.81,0,12.34,5.52,12.34,12.34C27.5,21.71,21.98,27.23,15.17,27.23z"/>
	</g>
	<g>
		<path class="st1" d="M15,0C6.79,0,0.14,6.65,0.14,14.86c0,2.77,0.76,5.37,2.08,7.59L0.35,30l7.45-2.14
			c2.13,1.18,4.59,1.86,7.2,1.86c8.21,0,14.86-6.65,14.86-14.86C29.86,6.65,23.21,0,15,0z M15.17,27.25c-2.6,0-5-0.8-6.99-2.17
			L3.94,26.3l1.08-4.37c-1.38-1.99-2.19-4.41-2.19-7.02c0-6.81,5.52-12.34,12.34-12.34c6.81,0,12.34,5.52,12.34,12.34
			C27.5,21.73,21.98,27.25,15.17,27.25z"/>
	</g>
	<g>
		<path class="st1" d="M11.24,13.68c0.17-0.2,0.34-0.4,0.52-0.59c0.29-0.34,0.72-0.66,0.75-1.14c0.02-0.46-0.14-0.93-0.31-1.35
			c-0.11-0.27-0.21-0.54-0.32-0.81c-0.19-0.49-0.43-1.19-0.7-1.48c-0.37-0.39-1-0.47-1.5-0.23c0,0-2.92,1.4-2.02,4.21
			c0,0,1.74,7.91,10.49,9.53c0,0,3.14,0.45,3.98-1.46c0.18-0.41,0.3-0.99,0.27-1.44c-0.03-0.43-0.34-0.72-0.69-0.93
			c-0.46-0.26-0.87-0.51-1.4-0.77c-0.46-0.22-0.98-0.56-1.5-0.41c-0.38,0.11-0.66,0.46-0.92,0.74c-0.34,0.36-0.69,0.72-1.03,1.07
			C16.85,18.62,12.42,16.99,11.24,13.68z"/>
	</g>
	<g>
		<g>
			<path class="st1" d="M21.73,12.69c-0.09,0-0.16-0.07-0.16-0.16c0-2.78-2.26-5.04-5.04-5.04c-0.09,0-0.16-0.07-0.16-0.16
				s0.07-0.16,0.16-0.16c2.96,0,5.36,2.41,5.36,5.37C21.89,12.62,21.82,12.69,21.73,12.69z"/>
		</g>
		<g>
			<path class="st1" d="M19.24,12.69c-0.09,0-0.16-0.07-0.16-0.16c0-1.65-1.34-2.99-2.99-2.99c-0.09,0-0.16-0.07-0.16-0.16
				c0-0.09,0.07-0.16,0.16-0.16c1.83,0,3.32,1.49,3.32,3.32C19.4,12.62,19.33,12.69,19.24,12.69z"/>
		</g>
	</g>
</g>
</svg>
